<mxfile host="65bd71144e">
    <diagram name="Page-1" id="M6jngVwOxtqL-gZ75R2M">
        <mxGraphModel dx="1447" dy="769" grid="1" gridSize="10" guides="1" tooltips="1" connect="1" arrows="1" fold="1" page="1" pageScale="1" pageWidth="827" pageHeight="1169" math="1" shadow="0">
            <root>
                <mxCell id="0"/>
                <mxCell id="1" parent="0"/>
                <mxCell id="zcqD_Dq0G7eDdX4AI_ru-199" style="edgeStyle=orthogonalEdgeStyle;rounded=1;orthogonalLoop=1;jettySize=auto;html=1;entryX=0.5;entryY=0;entryDx=0;entryDy=0;" parent="1" source="zcqD_Dq0G7eDdX4AI_ru-2" target="zcqD_Dq0G7eDdX4AI_ru-4" edge="1">
                    <mxGeometry relative="1" as="geometry"/>
                </mxCell>
                <mxCell id="zcqD_Dq0G7eDdX4AI_ru-2" value="" style="rounded=1;whiteSpace=wrap;html=1;fontSize=12;fillColor=none;fontFamily=palatina;fontSource=https%3A%2F%2Ffonts.googleapis.com%2Fcss%3Ffamily%3Dpalatina;fontColor=#000000;dashed=1;arcSize=5;" parent="1" vertex="1">
                    <mxGeometry x="45" y="40" width="579" height="250" as="geometry"/>
                </mxCell>
                <mxCell id="zcqD_Dq0G7eDdX4AI_ru-198" style="edgeStyle=orthogonalEdgeStyle;rounded=1;orthogonalLoop=1;jettySize=auto;html=1;entryX=0;entryY=0.5;entryDx=0;entryDy=0;" parent="1" source="zcqD_Dq0G7eDdX4AI_ru-4" target="zcqD_Dq0G7eDdX4AI_ru-81" edge="1">
                    <mxGeometry relative="1" as="geometry"/>
                </mxCell>
                <mxCell id="zcqD_Dq0G7eDdX4AI_ru-4" value="" style="rounded=1;whiteSpace=wrap;html=1;fontSize=12;fillColor=none;fontFamily=palatina;fontSource=https%3A%2F%2Ffonts.googleapis.com%2Fcss%3Ffamily%3Dpalatina;fontColor=#000000;dashed=1;arcSize=5;" parent="1" vertex="1">
                    <mxGeometry x="30" y="330" width="610" height="140" as="geometry"/>
                </mxCell>
                <mxCell id="zcqD_Dq0G7eDdX4AI_ru-5" value="&lt;font style=&quot;font-size: 16px;&quot;&gt;\(T\): Materialized data&lt;br style=&quot;font-size: 16px;&quot;&gt;&lt;/font&gt;" style="text;html=1;strokeColor=none;fillColor=none;align=center;verticalAlign=middle;whiteSpace=wrap;rounded=1;fontSize=16;fontColor=#000000;fontFamily=palatina;fontSource=https%3A%2F%2Ffonts.googleapis.com%2Fcss%3Ffamily%3Dpalatina;" parent="1" vertex="1">
                    <mxGeometry x="239" y="336.67" width="190" height="20" as="geometry"/>
                </mxCell>
                <mxCell id="zcqD_Dq0G7eDdX4AI_ru-6" value="" style="edgeStyle=orthogonalEdgeStyle;rounded=1;orthogonalLoop=1;jettySize=auto;html=1;exitX=1;exitY=0.5;exitDx=0;exitDy=0;fontSize=12;" parent="1" source="zcqD_Dq0G7eDdX4AI_ru-2" target="zcqD_Dq0G7eDdX4AI_ru-80" edge="1">
                    <mxGeometry relative="1" as="geometry"/>
                </mxCell>
                <mxCell id="zcqD_Dq0G7eDdX4AI_ru-7" value="&lt;font style=&quot;font-size: 16px;&quot;&gt;Source datasets&lt;/font&gt;" style="text;html=1;strokeColor=none;fillColor=none;align=center;verticalAlign=middle;whiteSpace=wrap;rounded=1;fontSize=16;fontColor=#000000;fontFamily=palatina;fontSource=https%3A%2F%2Ffonts.googleapis.com%2Fcss%3Ffamily%3Dpalatina;" parent="1" vertex="1">
                    <mxGeometry x="268.5" y="43.33" width="117.5" height="20" as="geometry"/>
                </mxCell>
                <mxCell id="zcqD_Dq0G7eDdX4AI_ru-8" value="" style="shape=table;startSize=0;container=1;collapsible=0;childLayout=tableLayout;labelBackgroundColor=none;fontSize=12;fontFamily=palatina;fontSource=https%3A%2F%2Ffonts.googleapis.com%2Fcss%3Ffamily%3Dpalatina;fontColor=#000000;rounded=1;" parent="1" vertex="1">
                    <mxGeometry x="53" y="83.33" width="245" height="100" as="geometry"/>
                </mxCell>
                <mxCell id="zcqD_Dq0G7eDdX4AI_ru-9" value="" style="shape=tableRow;horizontal=0;startSize=0;swimlaneHead=0;swimlaneBody=0;top=0;left=0;bottom=0;right=0;collapsible=0;dropTarget=0;fillColor=none;points=[[0,0.5],[1,0.5]];portConstraint=eastwest;labelBackgroundColor=none;fontSize=12;fontFamily=palatina;fontSource=https%3A%2F%2Ffonts.googleapis.com%2Fcss%3Ffamily%3Dpalatina;fontColor=#000000;rounded=1;" parent="zcqD_Dq0G7eDdX4AI_ru-8" vertex="1">
                    <mxGeometry width="245" height="20" as="geometry"/>
                </mxCell>
                <mxCell id="zcqD_Dq0G7eDdX4AI_ru-10" value="o_order_id" style="shape=partialRectangle;html=1;whiteSpace=wrap;connectable=0;overflow=hidden;top=0;left=0;bottom=0;right=0;pointerEvents=1;labelBackgroundColor=none;fillColor=#f5f5f5;strokeColor=#666666;fontColor=#000000;fontSize=12;fontFamily=palatina;fontSource=https%3A%2F%2Ffonts.googleapis.com%2Fcss%3Ffamily%3Dpalatina;fontStyle=1;rounded=1;" parent="zcqD_Dq0G7eDdX4AI_ru-9" vertex="1">
                    <mxGeometry width="75" height="20" as="geometry">
                        <mxRectangle width="75" height="20" as="alternateBounds"/>
                    </mxGeometry>
                </mxCell>
                <mxCell id="zcqD_Dq0G7eDdX4AI_ru-11" value="o_customer_sk" style="shape=partialRectangle;html=1;whiteSpace=wrap;connectable=0;overflow=hidden;top=0;left=0;bottom=0;right=0;pointerEvents=1;labelBackgroundColor=none;fillColor=#f5f5f5;strokeColor=#666666;fontColor=#000000;fontSize=12;fontFamily=palatina;fontSource=https%3A%2F%2Ffonts.googleapis.com%2Fcss%3Ffamily%3Dpalatina;fontStyle=1;rounded=1;" parent="zcqD_Dq0G7eDdX4AI_ru-9" vertex="1">
                    <mxGeometry x="75" width="95" height="20" as="geometry">
                        <mxRectangle width="95" height="20" as="alternateBounds"/>
                    </mxGeometry>
                </mxCell>
                <mxCell id="zcqD_Dq0G7eDdX4AI_ru-12" value="date" style="shape=partialRectangle;html=1;whiteSpace=wrap;connectable=0;overflow=hidden;top=0;left=0;bottom=0;right=0;pointerEvents=1;labelBackgroundColor=none;fillColor=#f5f5f5;strokeColor=#666666;fontColor=#000000;fontSize=12;fontFamily=palatina;fontSource=https%3A%2F%2Ffonts.googleapis.com%2Fcss%3Ffamily%3Dpalatina;fontStyle=1;rounded=1;" parent="zcqD_Dq0G7eDdX4AI_ru-9" vertex="1">
                    <mxGeometry x="170" width="75" height="20" as="geometry">
                        <mxRectangle width="75" height="20" as="alternateBounds"/>
                    </mxGeometry>
                </mxCell>
                <mxCell id="zcqD_Dq0G7eDdX4AI_ru-13" value="" style="shape=tableRow;horizontal=0;startSize=0;swimlaneHead=0;swimlaneBody=0;top=0;left=0;bottom=0;right=0;collapsible=0;dropTarget=0;fillColor=none;points=[[0,0.5],[1,0.5]];portConstraint=eastwest;labelBackgroundColor=none;fontSize=12;fontFamily=palatina;fontSource=https%3A%2F%2Ffonts.googleapis.com%2Fcss%3Ffamily%3Dpalatina;fontColor=#000000;rounded=1;" parent="zcqD_Dq0G7eDdX4AI_ru-8" vertex="1">
                    <mxGeometry y="20" width="245" height="20" as="geometry"/>
                </mxCell>
                <mxCell id="zcqD_Dq0G7eDdX4AI_ru-14" value="1" style="shape=partialRectangle;html=1;whiteSpace=wrap;connectable=0;overflow=hidden;top=0;left=0;bottom=0;right=0;pointerEvents=1;labelBackgroundColor=none;fontSize=10;fontFamily=palatina;fontSource=https%3A%2F%2Ffonts.googleapis.com%2Fcss%3Ffamily%3Dpalatina;fontColor=#000000;rounded=1;" parent="zcqD_Dq0G7eDdX4AI_ru-13" vertex="1">
                    <mxGeometry width="75" height="20" as="geometry">
                        <mxRectangle width="75" height="20" as="alternateBounds"/>
                    </mxGeometry>
                </mxCell>
                <mxCell id="zcqD_Dq0G7eDdX4AI_ru-15" value="11" style="shape=partialRectangle;html=1;whiteSpace=wrap;connectable=0;overflow=hidden;top=0;left=0;bottom=0;right=0;pointerEvents=1;labelBackgroundColor=none;fontSize=10;fontFamily=palatina;fontSource=https%3A%2F%2Ffonts.googleapis.com%2Fcss%3Ffamily%3Dpalatina;rounded=1;" parent="zcqD_Dq0G7eDdX4AI_ru-13" vertex="1">
                    <mxGeometry x="75" width="95" height="20" as="geometry">
                        <mxRectangle width="95" height="20" as="alternateBounds"/>
                    </mxGeometry>
                </mxCell>
                <mxCell id="zcqD_Dq0G7eDdX4AI_ru-16" value="2024-01-01" style="shape=partialRectangle;html=1;whiteSpace=wrap;connectable=0;overflow=hidden;top=0;left=0;bottom=0;right=0;pointerEvents=1;labelBackgroundColor=none;fontSize=10;fontFamily=palatina;fontSource=https%3A%2F%2Ffonts.googleapis.com%2Fcss%3Ffamily%3Dpalatina;fontColor=#000000;rounded=1;" parent="zcqD_Dq0G7eDdX4AI_ru-13" vertex="1">
                    <mxGeometry x="170" width="75" height="20" as="geometry">
                        <mxRectangle width="75" height="20" as="alternateBounds"/>
                    </mxGeometry>
                </mxCell>
                <mxCell id="zcqD_Dq0G7eDdX4AI_ru-17" style="shape=tableRow;horizontal=0;startSize=0;swimlaneHead=0;swimlaneBody=0;top=0;left=0;bottom=0;right=0;collapsible=0;dropTarget=0;fillColor=none;points=[[0,0.5],[1,0.5]];portConstraint=eastwest;labelBackgroundColor=none;fontSize=12;fontFamily=palatina;fontSource=https%3A%2F%2Ffonts.googleapis.com%2Fcss%3Ffamily%3Dpalatina;fontColor=#000000;rounded=1;" parent="zcqD_Dq0G7eDdX4AI_ru-8" vertex="1">
                    <mxGeometry y="40" width="245" height="20" as="geometry"/>
                </mxCell>
                <mxCell id="zcqD_Dq0G7eDdX4AI_ru-18" value="&lt;div style=&quot;font-size: 10px;&quot; align=&quot;center&quot;&gt;2&lt;/div&gt;" style="shape=partialRectangle;html=1;whiteSpace=wrap;connectable=0;overflow=hidden;top=0;left=0;bottom=0;right=0;pointerEvents=1;labelBackgroundColor=none;align=center;fontSize=10;fontFamily=palatina;fontSource=https%3A%2F%2Ffonts.googleapis.com%2Fcss%3Ffamily%3Dpalatina;fontColor=#333333;fillColor=#f5f5f5;strokeColor=#666666;rounded=1;" parent="zcqD_Dq0G7eDdX4AI_ru-17" vertex="1">
                    <mxGeometry width="75" height="20" as="geometry">
                        <mxRectangle width="75" height="20" as="alternateBounds"/>
                    </mxGeometry>
                </mxCell>
                <mxCell id="zcqD_Dq0G7eDdX4AI_ru-19" value="12" style="shape=partialRectangle;html=1;whiteSpace=wrap;connectable=0;overflow=hidden;top=0;left=0;bottom=0;right=0;pointerEvents=1;labelBackgroundColor=none;fontSize=10;fontFamily=palatina;fontSource=https%3A%2F%2Ffonts.googleapis.com%2Fcss%3Ffamily%3Dpalatina;fontColor=#333333;fillColor=#f5f5f5;strokeColor=#666666;rounded=1;" parent="zcqD_Dq0G7eDdX4AI_ru-17" vertex="1">
                    <mxGeometry x="75" width="95" height="20" as="geometry">
                        <mxRectangle width="95" height="20" as="alternateBounds"/>
                    </mxGeometry>
                </mxCell>
                <mxCell id="zcqD_Dq0G7eDdX4AI_ru-20" value="2024-01-02" style="shape=partialRectangle;html=1;whiteSpace=wrap;connectable=0;overflow=hidden;top=0;left=0;bottom=0;right=0;pointerEvents=1;labelBackgroundColor=none;fontSize=10;fontFamily=palatina;fontSource=https%3A%2F%2Ffonts.googleapis.com%2Fcss%3Ffamily%3Dpalatina;fontColor=#333333;fillColor=#f5f5f5;strokeColor=#666666;rounded=1;" parent="zcqD_Dq0G7eDdX4AI_ru-17" vertex="1">
                    <mxGeometry x="170" width="75" height="20" as="geometry">
                        <mxRectangle width="75" height="20" as="alternateBounds"/>
                    </mxGeometry>
                </mxCell>
                <mxCell id="zcqD_Dq0G7eDdX4AI_ru-21" style="shape=tableRow;horizontal=0;startSize=0;swimlaneHead=0;swimlaneBody=0;top=0;left=0;bottom=0;right=0;collapsible=0;dropTarget=0;fillColor=none;points=[[0,0.5],[1,0.5]];portConstraint=eastwest;labelBackgroundColor=none;fontSize=12;fontFamily=palatina;fontSource=https%3A%2F%2Ffonts.googleapis.com%2Fcss%3Ffamily%3Dpalatina;fontColor=#000000;rounded=1;" parent="zcqD_Dq0G7eDdX4AI_ru-8" vertex="1">
                    <mxGeometry y="60" width="245" height="20" as="geometry"/>
                </mxCell>
                <mxCell id="zcqD_Dq0G7eDdX4AI_ru-22" value="3" style="shape=partialRectangle;html=1;whiteSpace=wrap;connectable=0;overflow=hidden;top=0;left=0;bottom=0;right=0;pointerEvents=1;labelBackgroundColor=none;align=center;fontSize=10;fontFamily=palatina;fontSource=https%3A%2F%2Ffonts.googleapis.com%2Fcss%3Ffamily%3Dpalatina;fontColor=#000000;rounded=1;" parent="zcqD_Dq0G7eDdX4AI_ru-21" vertex="1">
                    <mxGeometry width="75" height="20" as="geometry">
                        <mxRectangle width="75" height="20" as="alternateBounds"/>
                    </mxGeometry>
                </mxCell>
                <mxCell id="zcqD_Dq0G7eDdX4AI_ru-23" value="11" style="shape=partialRectangle;html=1;whiteSpace=wrap;connectable=0;overflow=hidden;top=0;left=0;bottom=0;right=0;pointerEvents=1;labelBackgroundColor=none;fontSize=10;fontFamily=palatina;fontSource=https%3A%2F%2Ffonts.googleapis.com%2Fcss%3Ffamily%3Dpalatina;rounded=1;" parent="zcqD_Dq0G7eDdX4AI_ru-21" vertex="1">
                    <mxGeometry x="75" width="95" height="20" as="geometry">
                        <mxRectangle width="95" height="20" as="alternateBounds"/>
                    </mxGeometry>
                </mxCell>
                <mxCell id="zcqD_Dq0G7eDdX4AI_ru-24" value="2024-01-03" style="shape=partialRectangle;html=1;whiteSpace=wrap;connectable=0;overflow=hidden;top=0;left=0;bottom=0;right=0;pointerEvents=1;labelBackgroundColor=none;fontSize=10;fontFamily=palatina;fontSource=https%3A%2F%2Ffonts.googleapis.com%2Fcss%3Ffamily%3Dpalatina;fontColor=#000000;rounded=1;" parent="zcqD_Dq0G7eDdX4AI_ru-21" vertex="1">
                    <mxGeometry x="170" width="75" height="20" as="geometry">
                        <mxRectangle width="75" height="20" as="alternateBounds"/>
                    </mxGeometry>
                </mxCell>
                <mxCell id="zcqD_Dq0G7eDdX4AI_ru-25" style="shape=tableRow;horizontal=0;startSize=0;swimlaneHead=0;swimlaneBody=0;top=0;left=0;bottom=0;right=0;collapsible=0;dropTarget=0;fillColor=none;points=[[0,0.5],[1,0.5]];portConstraint=eastwest;labelBackgroundColor=none;fontSize=12;fontFamily=palatina;fontSource=https%3A%2F%2Ffonts.googleapis.com%2Fcss%3Ffamily%3Dpalatina;fontColor=#000000;rounded=1;" parent="zcqD_Dq0G7eDdX4AI_ru-8" vertex="1">
                    <mxGeometry y="80" width="245" height="20" as="geometry"/>
                </mxCell>
                <mxCell id="zcqD_Dq0G7eDdX4AI_ru-26" value="..." style="shape=partialRectangle;html=1;whiteSpace=wrap;connectable=0;overflow=hidden;top=0;left=0;bottom=0;right=0;pointerEvents=1;labelBackgroundColor=none;align=center;fontSize=10;fontFamily=palatina;fontSource=https%3A%2F%2Ffonts.googleapis.com%2Fcss%3Ffamily%3Dpalatina;fontColor=#333333;fillColor=#f5f5f5;strokeColor=#666666;rounded=1;" parent="zcqD_Dq0G7eDdX4AI_ru-25" vertex="1">
                    <mxGeometry width="75" height="20" as="geometry">
                        <mxRectangle width="75" height="20" as="alternateBounds"/>
                    </mxGeometry>
                </mxCell>
                <mxCell id="zcqD_Dq0G7eDdX4AI_ru-27" value="..." style="shape=partialRectangle;html=1;whiteSpace=wrap;connectable=0;overflow=hidden;top=0;left=0;bottom=0;right=0;pointerEvents=1;labelBackgroundColor=none;fontSize=10;fontFamily=palatina;fontSource=https%3A%2F%2Ffonts.googleapis.com%2Fcss%3Ffamily%3Dpalatina;fontColor=#333333;fillColor=#f5f5f5;strokeColor=#666666;rounded=1;" parent="zcqD_Dq0G7eDdX4AI_ru-25" vertex="1">
                    <mxGeometry x="75" width="95" height="20" as="geometry">
                        <mxRectangle width="95" height="20" as="alternateBounds"/>
                    </mxGeometry>
                </mxCell>
                <mxCell id="zcqD_Dq0G7eDdX4AI_ru-28" value="..." style="shape=partialRectangle;html=1;whiteSpace=wrap;connectable=0;overflow=hidden;top=0;left=0;bottom=0;right=0;pointerEvents=1;labelBackgroundColor=none;fontSize=10;fontFamily=palatina;fontSource=https%3A%2F%2Ffonts.googleapis.com%2Fcss%3Ffamily%3Dpalatina;fontColor=#333333;fillColor=#f5f5f5;strokeColor=#666666;rounded=1;" parent="zcqD_Dq0G7eDdX4AI_ru-25" vertex="1">
                    <mxGeometry x="170" width="75" height="20" as="geometry">
                        <mxRectangle width="75" height="20" as="alternateBounds"/>
                    </mxGeometry>
                </mxCell>
                <mxCell id="zcqD_Dq0G7eDdX4AI_ru-29" value="\(S_1\): Order" style="text;strokeColor=none;fillColor=none;align=center;verticalAlign=middle;whiteSpace=wrap;rounded=1;labelBackgroundColor=none;fontStyle=1;fontSize=12;fontFamily=palatina;fontSource=https%3A%2F%2Ffonts.googleapis.com%2Fcss%3Ffamily%3Dpalatina;fontColor=#000000;html=1;" parent="1" vertex="1">
                    <mxGeometry x="100.5" y="63.33" width="150" height="20" as="geometry"/>
                </mxCell>
                <mxCell id="zcqD_Dq0G7eDdX4AI_ru-30" value="" style="shape=table;startSize=0;container=1;collapsible=0;childLayout=tableLayout;labelBackgroundColor=none;fontSize=12;fontFamily=palatina;fontSource=https%3A%2F%2Ffonts.googleapis.com%2Fcss%3Ffamily%3Dpalatina;fontColor=#000000;rounded=1;" parent="1" vertex="1">
                    <mxGeometry x="307" y="72" width="310" height="120" as="geometry"/>
                </mxCell>
                <mxCell id="zcqD_Dq0G7eDdX4AI_ru-31" value="" style="shape=tableRow;horizontal=0;startSize=0;swimlaneHead=0;swimlaneBody=0;top=0;left=0;bottom=0;right=0;collapsible=0;dropTarget=0;fillColor=none;points=[[0,0.5],[1,0.5]];portConstraint=eastwest;labelBackgroundColor=none;fontSize=12;fontFamily=palatina;fontSource=https%3A%2F%2Ffonts.googleapis.com%2Fcss%3Ffamily%3Dpalatina;fontColor=#000000;rounded=1;" parent="zcqD_Dq0G7eDdX4AI_ru-30" vertex="1">
                    <mxGeometry width="310" height="20" as="geometry"/>
                </mxCell>
                <mxCell id="zcqD_Dq0G7eDdX4AI_ru-171" value="order_id" style="shape=partialRectangle;html=1;whiteSpace=wrap;connectable=0;overflow=hidden;top=0;left=0;bottom=0;right=0;pointerEvents=1;labelBackgroundColor=none;fillColor=#f5f5f5;strokeColor=#666666;fontColor=#000000;fontSize=12;fontFamily=palatina;fontSource=https%3A%2F%2Ffonts.googleapis.com%2Fcss%3Ffamily%3Dpalatina;fontStyle=1;rounded=1;" parent="zcqD_Dq0G7eDdX4AI_ru-31" vertex="1">
                    <mxGeometry width="75" height="20" as="geometry">
                        <mxRectangle width="75" height="20" as="alternateBounds"/>
                    </mxGeometry>
                </mxCell>
                <mxCell id="zcqD_Dq0G7eDdX4AI_ru-32" value="li_product_id" style="shape=partialRectangle;html=1;whiteSpace=wrap;connectable=0;overflow=hidden;top=0;left=0;bottom=0;right=0;pointerEvents=1;labelBackgroundColor=none;fillColor=#f5f5f5;strokeColor=#666666;fontColor=#000000;fontSize=12;fontFamily=palatina;fontSource=https%3A%2F%2Ffonts.googleapis.com%2Fcss%3Ffamily%3Dpalatina;fontStyle=1;rounded=1;" parent="zcqD_Dq0G7eDdX4AI_ru-31" vertex="1">
                    <mxGeometry x="75" width="85" height="20" as="geometry">
                        <mxRectangle width="85" height="20" as="alternateBounds"/>
                    </mxGeometry>
                </mxCell>
                <mxCell id="zcqD_Dq0G7eDdX4AI_ru-183" value="quantity" style="shape=partialRectangle;html=1;whiteSpace=wrap;connectable=0;overflow=hidden;top=0;left=0;bottom=0;right=0;pointerEvents=1;labelBackgroundColor=none;fillColor=#f5f5f5;strokeColor=#666666;fontColor=#000000;fontSize=12;fontFamily=palatina;fontSource=https%3A%2F%2Ffonts.googleapis.com%2Fcss%3Ffamily%3Dpalatina;fontStyle=1;rounded=1;" parent="zcqD_Dq0G7eDdX4AI_ru-31" vertex="1">
                    <mxGeometry x="160" width="75" height="20" as="geometry">
                        <mxRectangle width="75" height="20" as="alternateBounds"/>
                    </mxGeometry>
                </mxCell>
                <mxCell id="zcqD_Dq0G7eDdX4AI_ru-33" value="price" style="shape=partialRectangle;html=1;whiteSpace=wrap;connectable=0;overflow=hidden;top=0;left=0;bottom=0;right=0;pointerEvents=1;labelBackgroundColor=none;fillColor=#f5f5f5;strokeColor=#666666;fontColor=#000000;fontSize=12;fontFamily=palatina;fontSource=https%3A%2F%2Ffonts.googleapis.com%2Fcss%3Ffamily%3Dpalatina;fontStyle=1;rounded=1;" parent="zcqD_Dq0G7eDdX4AI_ru-31" vertex="1">
                    <mxGeometry x="235" width="75" height="20" as="geometry">
                        <mxRectangle width="75" height="20" as="alternateBounds"/>
                    </mxGeometry>
                </mxCell>
                <mxCell id="zcqD_Dq0G7eDdX4AI_ru-35" value="" style="shape=tableRow;horizontal=0;startSize=0;swimlaneHead=0;swimlaneBody=0;top=0;left=0;bottom=0;right=0;collapsible=0;dropTarget=0;fillColor=none;points=[[0,0.5],[1,0.5]];portConstraint=eastwest;labelBackgroundColor=none;fontSize=12;fontFamily=palatina;fontSource=https%3A%2F%2Ffonts.googleapis.com%2Fcss%3Ffamily%3Dpalatina;fontColor=#000000;rounded=1;" parent="zcqD_Dq0G7eDdX4AI_ru-30" vertex="1">
                    <mxGeometry y="20" width="310" height="20" as="geometry"/>
                </mxCell>
                <mxCell id="zcqD_Dq0G7eDdX4AI_ru-172" value="1" style="shape=partialRectangle;html=1;whiteSpace=wrap;connectable=0;overflow=hidden;top=0;left=0;bottom=0;right=0;pointerEvents=1;labelBackgroundColor=none;fontSize=12;fontFamily=palatina;fontSource=https%3A%2F%2Ffonts.googleapis.com%2Fcss%3Ffamily%3Dpalatina;fontColor=#000000;rounded=1;" parent="zcqD_Dq0G7eDdX4AI_ru-35" vertex="1">
                    <mxGeometry width="75" height="20" as="geometry">
                        <mxRectangle width="75" height="20" as="alternateBounds"/>
                    </mxGeometry>
                </mxCell>
                <mxCell id="zcqD_Dq0G7eDdX4AI_ru-36" value="21" style="shape=partialRectangle;html=1;whiteSpace=wrap;connectable=0;overflow=hidden;top=0;left=0;bottom=0;right=0;pointerEvents=1;labelBackgroundColor=none;fontSize=12;fontFamily=palatina;fontSource=https%3A%2F%2Ffonts.googleapis.com%2Fcss%3Ffamily%3Dpalatina;fontColor=#000000;rounded=1;" parent="zcqD_Dq0G7eDdX4AI_ru-35" vertex="1">
                    <mxGeometry x="75" width="85" height="20" as="geometry">
                        <mxRectangle width="85" height="20" as="alternateBounds"/>
                    </mxGeometry>
                </mxCell>
                <mxCell id="zcqD_Dq0G7eDdX4AI_ru-184" value="2" style="shape=partialRectangle;html=1;whiteSpace=wrap;connectable=0;overflow=hidden;top=0;left=0;bottom=0;right=0;pointerEvents=1;labelBackgroundColor=none;fontSize=12;fontFamily=palatina;fontSource=https%3A%2F%2Ffonts.googleapis.com%2Fcss%3Ffamily%3Dpalatina;fontColor=#000000;rounded=1;" parent="zcqD_Dq0G7eDdX4AI_ru-35" vertex="1">
                    <mxGeometry x="160" width="75" height="20" as="geometry">
                        <mxRectangle width="75" height="20" as="alternateBounds"/>
                    </mxGeometry>
                </mxCell>
                <mxCell id="zcqD_Dq0G7eDdX4AI_ru-37" value="20" style="shape=partialRectangle;html=1;whiteSpace=wrap;connectable=0;overflow=hidden;top=0;left=0;bottom=0;right=0;pointerEvents=1;labelBackgroundColor=none;fontSize=12;fontFamily=palatina;fontSource=https%3A%2F%2Ffonts.googleapis.com%2Fcss%3Ffamily%3Dpalatina;fontColor=#000000;rounded=1;" parent="zcqD_Dq0G7eDdX4AI_ru-35" vertex="1">
                    <mxGeometry x="235" width="75" height="20" as="geometry">
                        <mxRectangle width="75" height="20" as="alternateBounds"/>
                    </mxGeometry>
                </mxCell>
                <mxCell id="zcqD_Dq0G7eDdX4AI_ru-39" style="shape=tableRow;horizontal=0;startSize=0;swimlaneHead=0;swimlaneBody=0;top=0;left=0;bottom=0;right=0;collapsible=0;dropTarget=0;fillColor=none;points=[[0,0.5],[1,0.5]];portConstraint=eastwest;labelBackgroundColor=none;fontSize=12;fontFamily=palatina;fontSource=https%3A%2F%2Ffonts.googleapis.com%2Fcss%3Ffamily%3Dpalatina;fontColor=#000000;swimlaneFillColor=none;rounded=1;" parent="zcqD_Dq0G7eDdX4AI_ru-30" vertex="1">
                    <mxGeometry y="40" width="310" height="20" as="geometry"/>
                </mxCell>
                <mxCell id="zcqD_Dq0G7eDdX4AI_ru-173" value="1" style="shape=partialRectangle;html=1;whiteSpace=wrap;connectable=0;overflow=hidden;top=0;left=0;bottom=0;right=0;pointerEvents=1;labelBackgroundColor=none;fontSize=12;fontFamily=palatina;fontSource=https%3A%2F%2Ffonts.googleapis.com%2Fcss%3Ffamily%3Dpalatina;fontColor=#333333;fillColor=#f5f5f5;strokeColor=#666666;rounded=1;" parent="zcqD_Dq0G7eDdX4AI_ru-39" vertex="1">
                    <mxGeometry width="75" height="20" as="geometry">
                        <mxRectangle width="75" height="20" as="alternateBounds"/>
                    </mxGeometry>
                </mxCell>
                <mxCell id="zcqD_Dq0G7eDdX4AI_ru-40" value="22" style="shape=partialRectangle;html=1;whiteSpace=wrap;connectable=0;overflow=hidden;top=0;left=0;bottom=0;right=0;pointerEvents=1;labelBackgroundColor=none;fontSize=12;fontFamily=palatina;fontSource=https%3A%2F%2Ffonts.googleapis.com%2Fcss%3Ffamily%3Dpalatina;fontColor=#333333;fillColor=#f5f5f5;strokeColor=#666666;rounded=1;" parent="zcqD_Dq0G7eDdX4AI_ru-39" vertex="1">
                    <mxGeometry x="75" width="85" height="20" as="geometry">
                        <mxRectangle width="85" height="20" as="alternateBounds"/>
                    </mxGeometry>
                </mxCell>
                <mxCell id="zcqD_Dq0G7eDdX4AI_ru-185" value="1" style="shape=partialRectangle;html=1;whiteSpace=wrap;connectable=0;overflow=hidden;top=0;left=0;bottom=0;right=0;pointerEvents=1;labelBackgroundColor=none;fontSize=12;fontFamily=palatina;fontSource=https%3A%2F%2Ffonts.googleapis.com%2Fcss%3Ffamily%3Dpalatina;fontColor=#333333;fillColor=#f5f5f5;strokeColor=#666666;rounded=1;" parent="zcqD_Dq0G7eDdX4AI_ru-39" vertex="1">
                    <mxGeometry x="160" width="75" height="20" as="geometry">
                        <mxRectangle width="75" height="20" as="alternateBounds"/>
                    </mxGeometry>
                </mxCell>
                <mxCell id="zcqD_Dq0G7eDdX4AI_ru-41" value="25" style="shape=partialRectangle;html=1;whiteSpace=wrap;connectable=0;overflow=hidden;top=0;left=0;bottom=0;right=0;pointerEvents=1;labelBackgroundColor=none;fontSize=12;fontFamily=palatina;fontSource=https%3A%2F%2Ffonts.googleapis.com%2Fcss%3Ffamily%3Dpalatina;fontColor=#333333;fillColor=#f5f5f5;strokeColor=#666666;rounded=1;" parent="zcqD_Dq0G7eDdX4AI_ru-39" vertex="1">
                    <mxGeometry x="235" width="75" height="20" as="geometry">
                        <mxRectangle width="75" height="20" as="alternateBounds"/>
                    </mxGeometry>
                </mxCell>
                <mxCell id="zcqD_Dq0G7eDdX4AI_ru-43" style="shape=tableRow;horizontal=0;startSize=0;swimlaneHead=0;swimlaneBody=0;top=0;left=0;bottom=0;right=0;collapsible=0;dropTarget=0;fillColor=none;points=[[0,0.5],[1,0.5]];portConstraint=eastwest;labelBackgroundColor=none;fontSize=12;fontFamily=palatina;fontSource=https%3A%2F%2Ffonts.googleapis.com%2Fcss%3Ffamily%3Dpalatina;fontColor=#000000;rounded=1;" parent="zcqD_Dq0G7eDdX4AI_ru-30" vertex="1">
                    <mxGeometry y="60" width="310" height="20" as="geometry"/>
                </mxCell>
                <mxCell id="zcqD_Dq0G7eDdX4AI_ru-174" value="2" style="shape=partialRectangle;html=1;whiteSpace=wrap;connectable=0;overflow=hidden;top=0;left=0;bottom=0;right=0;pointerEvents=1;labelBackgroundColor=none;fontSize=12;fontFamily=palatina;fontSource=https%3A%2F%2Ffonts.googleapis.com%2Fcss%3Ffamily%3Dpalatina;fontColor=#000000;rounded=1;" parent="zcqD_Dq0G7eDdX4AI_ru-43" vertex="1">
                    <mxGeometry width="75" height="20" as="geometry">
                        <mxRectangle width="75" height="20" as="alternateBounds"/>
                    </mxGeometry>
                </mxCell>
                <mxCell id="zcqD_Dq0G7eDdX4AI_ru-44" value="23" style="shape=partialRectangle;html=1;whiteSpace=wrap;connectable=0;overflow=hidden;top=0;left=0;bottom=0;right=0;pointerEvents=1;labelBackgroundColor=none;fontSize=12;fontFamily=palatina;fontSource=https%3A%2F%2Ffonts.googleapis.com%2Fcss%3Ffamily%3Dpalatina;fontColor=#000000;rounded=1;" parent="zcqD_Dq0G7eDdX4AI_ru-43" vertex="1">
                    <mxGeometry x="75" width="85" height="20" as="geometry">
                        <mxRectangle width="85" height="20" as="alternateBounds"/>
                    </mxGeometry>
                </mxCell>
                <mxCell id="zcqD_Dq0G7eDdX4AI_ru-186" value="3" style="shape=partialRectangle;html=1;whiteSpace=wrap;connectable=0;overflow=hidden;top=0;left=0;bottom=0;right=0;pointerEvents=1;labelBackgroundColor=none;fontSize=12;fontFamily=palatina;fontSource=https%3A%2F%2Ffonts.googleapis.com%2Fcss%3Ffamily%3Dpalatina;fontColor=#000000;rounded=1;" parent="zcqD_Dq0G7eDdX4AI_ru-43" vertex="1">
                    <mxGeometry x="160" width="75" height="20" as="geometry">
                        <mxRectangle width="75" height="20" as="alternateBounds"/>
                    </mxGeometry>
                </mxCell>
                <mxCell id="zcqD_Dq0G7eDdX4AI_ru-45" value="13" style="shape=partialRectangle;html=1;whiteSpace=wrap;connectable=0;overflow=hidden;top=0;left=0;bottom=0;right=0;pointerEvents=1;labelBackgroundColor=none;fontSize=12;fontFamily=palatina;fontSource=https%3A%2F%2Ffonts.googleapis.com%2Fcss%3Ffamily%3Dpalatina;fontColor=#000000;rounded=1;" parent="zcqD_Dq0G7eDdX4AI_ru-43" vertex="1">
                    <mxGeometry x="235" width="75" height="20" as="geometry">
                        <mxRectangle width="75" height="20" as="alternateBounds"/>
                    </mxGeometry>
                </mxCell>
                <mxCell id="zcqD_Dq0G7eDdX4AI_ru-179" style="shape=tableRow;horizontal=0;startSize=0;swimlaneHead=0;swimlaneBody=0;top=0;left=0;bottom=0;right=0;collapsible=0;dropTarget=0;fillColor=none;points=[[0,0.5],[1,0.5]];portConstraint=eastwest;labelBackgroundColor=none;fontSize=12;fontFamily=palatina;fontSource=https%3A%2F%2Ffonts.googleapis.com%2Fcss%3Ffamily%3Dpalatina;fontColor=#000000;rounded=1;" parent="zcqD_Dq0G7eDdX4AI_ru-30" vertex="1">
                    <mxGeometry y="80" width="310" height="20" as="geometry"/>
                </mxCell>
                <mxCell id="zcqD_Dq0G7eDdX4AI_ru-180" value="3" style="shape=partialRectangle;html=1;whiteSpace=wrap;connectable=0;overflow=hidden;top=0;left=0;bottom=0;right=0;pointerEvents=1;labelBackgroundColor=none;fontSize=12;fontFamily=palatina;fontSource=https%3A%2F%2Ffonts.googleapis.com%2Fcss%3Ffamily%3Dpalatina;fontColor=#333333;fillColor=#f5f5f5;strokeColor=#666666;rounded=1;" parent="zcqD_Dq0G7eDdX4AI_ru-179" vertex="1">
                    <mxGeometry width="75" height="20" as="geometry">
                        <mxRectangle width="75" height="20" as="alternateBounds"/>
                    </mxGeometry>
                </mxCell>
                <mxCell id="zcqD_Dq0G7eDdX4AI_ru-181" value="21" style="shape=partialRectangle;html=1;whiteSpace=wrap;connectable=0;overflow=hidden;top=0;left=0;bottom=0;right=0;pointerEvents=1;labelBackgroundColor=none;fontSize=12;fontFamily=palatina;fontSource=https%3A%2F%2Ffonts.googleapis.com%2Fcss%3Ffamily%3Dpalatina;fontColor=#333333;fillColor=#f5f5f5;strokeColor=#666666;rounded=1;" parent="zcqD_Dq0G7eDdX4AI_ru-179" vertex="1">
                    <mxGeometry x="75" width="85" height="20" as="geometry">
                        <mxRectangle width="85" height="20" as="alternateBounds"/>
                    </mxGeometry>
                </mxCell>
                <mxCell id="zcqD_Dq0G7eDdX4AI_ru-187" value="1" style="shape=partialRectangle;html=1;whiteSpace=wrap;connectable=0;overflow=hidden;top=0;left=0;bottom=0;right=0;pointerEvents=1;labelBackgroundColor=none;fontSize=12;fontFamily=palatina;fontSource=https%3A%2F%2Ffonts.googleapis.com%2Fcss%3Ffamily%3Dpalatina;fontColor=#333333;fillColor=#f5f5f5;strokeColor=#666666;rounded=1;" parent="zcqD_Dq0G7eDdX4AI_ru-179" vertex="1">
                    <mxGeometry x="160" width="75" height="20" as="geometry">
                        <mxRectangle width="75" height="20" as="alternateBounds"/>
                    </mxGeometry>
                </mxCell>
                <mxCell id="zcqD_Dq0G7eDdX4AI_ru-182" value="10" style="shape=partialRectangle;html=1;whiteSpace=wrap;connectable=0;overflow=hidden;top=0;left=0;bottom=0;right=0;pointerEvents=1;labelBackgroundColor=none;fontSize=12;fontFamily=palatina;fontSource=https%3A%2F%2Ffonts.googleapis.com%2Fcss%3Ffamily%3Dpalatina;fontColor=#333333;fillColor=#f5f5f5;strokeColor=#666666;rounded=1;" parent="zcqD_Dq0G7eDdX4AI_ru-179" vertex="1">
                    <mxGeometry x="235" width="75" height="20" as="geometry">
                        <mxRectangle width="75" height="20" as="alternateBounds"/>
                    </mxGeometry>
                </mxCell>
                <mxCell id="zcqD_Dq0G7eDdX4AI_ru-175" style="shape=tableRow;horizontal=0;startSize=0;swimlaneHead=0;swimlaneBody=0;top=0;left=0;bottom=0;right=0;collapsible=0;dropTarget=0;fillColor=none;points=[[0,0.5],[1,0.5]];portConstraint=eastwest;labelBackgroundColor=none;fontSize=12;fontFamily=palatina;fontSource=https%3A%2F%2Ffonts.googleapis.com%2Fcss%3Ffamily%3Dpalatina;fontColor=#000000;rounded=1;" parent="zcqD_Dq0G7eDdX4AI_ru-30" vertex="1">
                    <mxGeometry y="100" width="310" height="20" as="geometry"/>
                </mxCell>
                <mxCell id="zcqD_Dq0G7eDdX4AI_ru-176" value="..." style="shape=partialRectangle;html=1;whiteSpace=wrap;connectable=0;overflow=hidden;top=0;left=0;bottom=0;right=0;pointerEvents=1;labelBackgroundColor=none;fontSize=12;fontFamily=palatina;fontSource=https%3A%2F%2Ffonts.googleapis.com%2Fcss%3Ffamily%3Dpalatina;fontColor=#000000;rounded=1;" parent="zcqD_Dq0G7eDdX4AI_ru-175" vertex="1">
                    <mxGeometry width="75" height="20" as="geometry">
                        <mxRectangle width="75" height="20" as="alternateBounds"/>
                    </mxGeometry>
                </mxCell>
                <mxCell id="zcqD_Dq0G7eDdX4AI_ru-177" value="..." style="shape=partialRectangle;html=1;whiteSpace=wrap;connectable=0;overflow=hidden;top=0;left=0;bottom=0;right=0;pointerEvents=1;labelBackgroundColor=none;fontSize=12;fontFamily=palatina;fontSource=https%3A%2F%2Ffonts.googleapis.com%2Fcss%3Ffamily%3Dpalatina;fontColor=#000000;rounded=1;" parent="zcqD_Dq0G7eDdX4AI_ru-175" vertex="1">
                    <mxGeometry x="75" width="85" height="20" as="geometry">
                        <mxRectangle width="85" height="20" as="alternateBounds"/>
                    </mxGeometry>
                </mxCell>
                <mxCell id="zcqD_Dq0G7eDdX4AI_ru-188" style="shape=partialRectangle;html=1;whiteSpace=wrap;connectable=0;overflow=hidden;top=0;left=0;bottom=0;right=0;pointerEvents=1;labelBackgroundColor=none;fontSize=12;fontFamily=palatina;fontSource=https%3A%2F%2Ffonts.googleapis.com%2Fcss%3Ffamily%3Dpalatina;fontColor=#000000;rounded=1;" parent="zcqD_Dq0G7eDdX4AI_ru-175" vertex="1">
                    <mxGeometry x="160" width="75" height="20" as="geometry">
                        <mxRectangle width="75" height="20" as="alternateBounds"/>
                    </mxGeometry>
                </mxCell>
                <mxCell id="zcqD_Dq0G7eDdX4AI_ru-178" value="..." style="shape=partialRectangle;html=1;whiteSpace=wrap;connectable=0;overflow=hidden;top=0;left=0;bottom=0;right=0;pointerEvents=1;labelBackgroundColor=none;fontSize=12;fontFamily=palatina;fontSource=https%3A%2F%2Ffonts.googleapis.com%2Fcss%3Ffamily%3Dpalatina;fontColor=#000000;rounded=1;" parent="zcqD_Dq0G7eDdX4AI_ru-175" vertex="1">
                    <mxGeometry x="235" width="75" height="20" as="geometry">
                        <mxRectangle width="75" height="20" as="alternateBounds"/>
                    </mxGeometry>
                </mxCell>
                <mxCell id="zcqD_Dq0G7eDdX4AI_ru-47" value="\(S_2\) Lineitem" style="text;html=1;strokeColor=none;fillColor=none;align=center;verticalAlign=middle;whiteSpace=wrap;rounded=1;labelBackgroundColor=none;fontStyle=1;fontSize=12;fontFamily=palatina;fontSource=https%3A%2F%2Ffonts.googleapis.com%2Fcss%3Ffamily%3Dpalatina;fontColor=#000000;" parent="1" vertex="1">
                    <mxGeometry x="397" y="47.99999999999999" width="130" height="24" as="geometry"/>
                </mxCell>
                <mxCell id="zcqD_Dq0G7eDdX4AI_ru-48" value="" style="shape=table;startSize=0;container=1;collapsible=0;childLayout=tableLayout;labelBackgroundColor=none;fontSize=12;fontFamily=palatina;fontSource=https%3A%2F%2Ffonts.googleapis.com%2Fcss%3Ffamily%3Dpalatina;fontColor=#000000;strokeColor=default;rounded=1;" parent="1" vertex="1">
                    <mxGeometry x="39" y="365" width="590" height="96" as="geometry"/>
                </mxCell>
                <mxCell id="zcqD_Dq0G7eDdX4AI_ru-49" value="" style="shape=tableRow;horizontal=0;startSize=0;swimlaneHead=0;swimlaneBody=0;top=0;left=0;bottom=0;right=0;collapsible=0;dropTarget=0;fillColor=none;points=[[0,0.5],[1,0.5]];portConstraint=eastwest;labelBackgroundColor=none;fontSize=12;fontFamily=palatina;fontSource=https%3A%2F%2Ffonts.googleapis.com%2Fcss%3Ffamily%3Dpalatina;fontColor=#000000;rounded=1;" parent="zcqD_Dq0G7eDdX4AI_ru-48" vertex="1">
                    <mxGeometry width="590" height="16" as="geometry"/>
                </mxCell>
                <mxCell id="zcqD_Dq0G7eDdX4AI_ru-50" value="o_order_id" style="shape=partialRectangle;html=1;whiteSpace=wrap;connectable=0;overflow=hidden;top=0;left=0;bottom=0;right=0;pointerEvents=1;labelBackgroundColor=none;fillColor=#f5f5f5;strokeColor=#666666;fontColor=#000000;fontSize=11;fontFamily=palatina;fontSource=https%3A%2F%2Ffonts.googleapis.com%2Fcss%3Ffamily%3Dpalatina;fontStyle=1;rounded=1;" parent="zcqD_Dq0G7eDdX4AI_ru-49" vertex="1">
                    <mxGeometry width="75" height="16" as="geometry">
                        <mxRectangle width="75" height="16" as="alternateBounds"/>
                    </mxGeometry>
                </mxCell>
                <mxCell id="zcqD_Dq0G7eDdX4AI_ru-51" value="o_customer_sk" style="shape=partialRectangle;html=1;whiteSpace=wrap;connectable=0;overflow=hidden;top=0;left=0;bottom=0;right=0;pointerEvents=1;labelBackgroundColor=none;fillColor=#f5f5f5;strokeColor=#666666;fontColor=#000000;fontSize=11;fontFamily=palatina;fontSource=https%3A%2F%2Ffonts.googleapis.com%2Fcss%3Ffamily%3Dpalatina;fontStyle=1;rounded=1;" parent="zcqD_Dq0G7eDdX4AI_ru-49" vertex="1">
                    <mxGeometry x="75" width="95" height="16" as="geometry">
                        <mxRectangle width="95" height="16" as="alternateBounds"/>
                    </mxGeometry>
                </mxCell>
                <mxCell id="zcqD_Dq0G7eDdX4AI_ru-52" value="date" style="shape=partialRectangle;html=1;whiteSpace=wrap;connectable=0;overflow=hidden;top=0;left=0;bottom=0;right=0;pointerEvents=1;labelBackgroundColor=none;fillColor=#f5f5f5;strokeColor=#666666;fontColor=#000000;fontSize=11;fontFamily=palatina;fontSource=https%3A%2F%2Ffonts.googleapis.com%2Fcss%3Ffamily%3Dpalatina;fontStyle=1;rounded=1;" parent="zcqD_Dq0G7eDdX4AI_ru-49" vertex="1">
                    <mxGeometry x="170" width="75" height="16" as="geometry">
                        <mxRectangle width="75" height="16" as="alternateBounds"/>
                    </mxGeometry>
                </mxCell>
                <mxCell id="zcqD_Dq0G7eDdX4AI_ru-53" value="li_product_id" style="shape=partialRectangle;html=1;whiteSpace=wrap;connectable=0;overflow=hidden;top=0;left=0;bottom=0;right=0;pointerEvents=1;labelBackgroundColor=none;fillColor=#f5f5f5;strokeColor=#666666;fontColor=#000000;fontSize=11;fontFamily=palatina;fontSource=https%3A%2F%2Ffonts.googleapis.com%2Fcss%3Ffamily%3Dpalatina;fontStyle=1;rounded=1;" parent="zcqD_Dq0G7eDdX4AI_ru-49" vertex="1">
                    <mxGeometry x="245" width="85" height="16" as="geometry">
                        <mxRectangle width="85" height="16" as="alternateBounds"/>
                    </mxGeometry>
                </mxCell>
                <mxCell id="zcqD_Dq0G7eDdX4AI_ru-54" value="quantity" style="shape=partialRectangle;html=1;whiteSpace=wrap;connectable=0;overflow=hidden;top=0;left=0;bottom=0;right=0;pointerEvents=1;labelBackgroundColor=none;fillColor=#f5f5f5;strokeColor=default;fontColor=#000000;fontSize=11;fontFamily=palatina;fontSource=https%3A%2F%2Ffonts.googleapis.com%2Fcss%3Ffamily%3Dpalatina;fontStyle=1;rounded=1;" parent="zcqD_Dq0G7eDdX4AI_ru-49" vertex="1">
                    <mxGeometry x="330" width="75" height="16" as="geometry">
                        <mxRectangle width="75" height="16" as="alternateBounds"/>
                    </mxGeometry>
                </mxCell>
                <mxCell id="zcqD_Dq0G7eDdX4AI_ru-136" value="price" style="shape=partialRectangle;html=1;whiteSpace=wrap;connectable=0;overflow=hidden;top=0;left=0;bottom=0;right=0;pointerEvents=1;labelBackgroundColor=none;fillColor=#f5f5f5;strokeColor=default;fontColor=#000000;fontSize=11;fontFamily=palatina;fontSource=https%3A%2F%2Ffonts.googleapis.com%2Fcss%3Ffamily%3Dpalatina;fontStyle=1;rounded=1;" parent="zcqD_Dq0G7eDdX4AI_ru-49" vertex="1">
                    <mxGeometry x="405" width="75" height="16" as="geometry">
                        <mxRectangle width="75" height="16" as="alternateBounds"/>
                    </mxGeometry>
                </mxCell>
                <mxCell id="zcqD_Dq0G7eDdX4AI_ru-131" value="or_return_quantity" style="shape=partialRectangle;html=1;whiteSpace=wrap;connectable=0;overflow=hidden;top=0;left=0;bottom=0;right=0;pointerEvents=1;labelBackgroundColor=none;fillColor=#f5f5f5;strokeColor=default;fontColor=#000000;fontSize=11;fontFamily=palatina;fontSource=https%3A%2F%2Ffonts.googleapis.com%2Fcss%3Ffamily%3Dpalatina;fontStyle=1;rounded=1;" parent="zcqD_Dq0G7eDdX4AI_ru-49" vertex="1">
                    <mxGeometry x="480" width="110" height="16" as="geometry">
                        <mxRectangle width="110" height="16" as="alternateBounds"/>
                    </mxGeometry>
                </mxCell>
                <mxCell id="zcqD_Dq0G7eDdX4AI_ru-55" value="" style="shape=tableRow;horizontal=0;startSize=0;swimlaneHead=0;swimlaneBody=0;top=0;left=0;bottom=0;right=0;collapsible=0;dropTarget=0;fillColor=none;points=[[0,0.5],[1,0.5]];portConstraint=eastwest;labelBackgroundColor=none;fontSize=12;fontFamily=palatina;fontSource=https%3A%2F%2Ffonts.googleapis.com%2Fcss%3Ffamily%3Dpalatina;fontColor=#000000;rounded=1;" parent="zcqD_Dq0G7eDdX4AI_ru-48" vertex="1">
                    <mxGeometry y="16" width="590" height="16" as="geometry"/>
                </mxCell>
                <mxCell id="zcqD_Dq0G7eDdX4AI_ru-56" value="1" style="shape=partialRectangle;html=1;whiteSpace=wrap;connectable=0;overflow=hidden;top=0;left=0;bottom=0;right=0;pointerEvents=1;labelBackgroundColor=none;fontSize=10;fontFamily=palatina;fontSource=https%3A%2F%2Ffonts.googleapis.com%2Fcss%3Ffamily%3Dpalatina;fillColor=#ffe6cc;strokeColor=#d79b00;rounded=1;" parent="zcqD_Dq0G7eDdX4AI_ru-55" vertex="1">
                    <mxGeometry width="75" height="16" as="geometry">
                        <mxRectangle width="75" height="16" as="alternateBounds"/>
                    </mxGeometry>
                </mxCell>
                <mxCell id="zcqD_Dq0G7eDdX4AI_ru-57" value="11" style="shape=partialRectangle;html=1;whiteSpace=wrap;connectable=0;overflow=hidden;top=0;left=0;bottom=0;right=0;pointerEvents=1;labelBackgroundColor=none;fontSize=10;fontFamily=palatina;fontSource=https%3A%2F%2Ffonts.googleapis.com%2Fcss%3Ffamily%3Dpalatina;fillColor=#ffe6cc;strokeColor=#d79b00;rounded=1;" parent="zcqD_Dq0G7eDdX4AI_ru-55" vertex="1">
                    <mxGeometry x="75" width="95" height="16" as="geometry">
                        <mxRectangle width="95" height="16" as="alternateBounds"/>
                    </mxGeometry>
                </mxCell>
                <mxCell id="zcqD_Dq0G7eDdX4AI_ru-58" value="2024-01-01" style="shape=partialRectangle;html=1;whiteSpace=wrap;connectable=0;overflow=hidden;top=0;left=0;bottom=0;right=0;pointerEvents=1;labelBackgroundColor=none;fontSize=10;fontFamily=palatina;fontSource=https%3A%2F%2Ffonts.googleapis.com%2Fcss%3Ffamily%3Dpalatina;fillColor=#ffe6cc;strokeColor=#d79b00;rounded=1;" parent="zcqD_Dq0G7eDdX4AI_ru-55" vertex="1">
                    <mxGeometry x="170" width="75" height="16" as="geometry">
                        <mxRectangle width="75" height="16" as="alternateBounds"/>
                    </mxGeometry>
                </mxCell>
                <mxCell id="zcqD_Dq0G7eDdX4AI_ru-59" value="21" style="shape=partialRectangle;html=1;whiteSpace=wrap;connectable=0;overflow=hidden;top=0;left=0;bottom=0;right=0;pointerEvents=1;labelBackgroundColor=none;fontSize=10;fontFamily=palatina;fontSource=https%3A%2F%2Ffonts.googleapis.com%2Fcss%3Ffamily%3Dpalatina;fontColor=#000000;rounded=1;" parent="zcqD_Dq0G7eDdX4AI_ru-55" vertex="1">
                    <mxGeometry x="245" width="85" height="16" as="geometry">
                        <mxRectangle width="85" height="16" as="alternateBounds"/>
                    </mxGeometry>
                </mxCell>
                <mxCell id="zcqD_Dq0G7eDdX4AI_ru-60" value="2" style="shape=partialRectangle;html=1;whiteSpace=wrap;connectable=0;overflow=hidden;top=0;left=0;bottom=0;right=0;pointerEvents=1;labelBackgroundColor=none;fontSize=10;fontFamily=palatina;fontSource=https%3A%2F%2Ffonts.googleapis.com%2Fcss%3Ffamily%3Dpalatina;fontColor=#000000;strokeColor=inherit;rounded=1;" parent="zcqD_Dq0G7eDdX4AI_ru-55" vertex="1">
                    <mxGeometry x="330" width="75" height="16" as="geometry">
                        <mxRectangle width="75" height="16" as="alternateBounds"/>
                    </mxGeometry>
                </mxCell>
                <mxCell id="zcqD_Dq0G7eDdX4AI_ru-137" value="20" style="shape=partialRectangle;html=1;whiteSpace=wrap;connectable=0;overflow=hidden;top=0;left=0;bottom=0;right=0;pointerEvents=1;labelBackgroundColor=none;fontSize=10;fontFamily=palatina;fontSource=https%3A%2F%2Ffonts.googleapis.com%2Fcss%3Ffamily%3Dpalatina;fontColor=#000000;strokeColor=inherit;rounded=1;" parent="zcqD_Dq0G7eDdX4AI_ru-55" vertex="1">
                    <mxGeometry x="405" width="75" height="16" as="geometry">
                        <mxRectangle width="75" height="16" as="alternateBounds"/>
                    </mxGeometry>
                </mxCell>
                <mxCell id="zcqD_Dq0G7eDdX4AI_ru-132" value="0" style="shape=partialRectangle;html=1;whiteSpace=wrap;connectable=0;overflow=hidden;top=0;left=0;bottom=0;right=0;pointerEvents=1;labelBackgroundColor=none;fontSize=10;fontFamily=palatina;fontSource=https%3A%2F%2Ffonts.googleapis.com%2Fcss%3Ffamily%3Dpalatina;strokeColor=#d79b00;fillColor=#ffe6cc;rounded=1;" parent="zcqD_Dq0G7eDdX4AI_ru-55" vertex="1">
                    <mxGeometry x="480" width="110" height="16" as="geometry">
                        <mxRectangle width="110" height="16" as="alternateBounds"/>
                    </mxGeometry>
                </mxCell>
                <mxCell id="zcqD_Dq0G7eDdX4AI_ru-61" style="shape=tableRow;horizontal=0;startSize=0;swimlaneHead=0;swimlaneBody=0;top=0;left=0;bottom=0;right=0;collapsible=0;dropTarget=0;fillColor=none;points=[[0,0.5],[1,0.5]];portConstraint=eastwest;labelBackgroundColor=none;fontSize=12;fontFamily=palatina;fontSource=https%3A%2F%2Ffonts.googleapis.com%2Fcss%3Ffamily%3Dpalatina;fontColor=#000000;rounded=1;" parent="zcqD_Dq0G7eDdX4AI_ru-48" vertex="1">
                    <mxGeometry y="32" width="590" height="16" as="geometry"/>
                </mxCell>
                <mxCell id="zcqD_Dq0G7eDdX4AI_ru-62" value="&lt;div style=&quot;font-size: 10px;&quot; align=&quot;center&quot;&gt;1&lt;/div&gt;" style="shape=partialRectangle;html=1;whiteSpace=wrap;connectable=0;overflow=hidden;top=0;left=0;bottom=0;right=0;pointerEvents=1;labelBackgroundColor=none;align=center;fontSize=10;fontFamily=palatina;fontSource=https%3A%2F%2Ffonts.googleapis.com%2Fcss%3Ffamily%3Dpalatina;fillColor=#ffe6cc;strokeColor=#d79b00;rounded=1;" parent="zcqD_Dq0G7eDdX4AI_ru-61" vertex="1">
                    <mxGeometry width="75" height="16" as="geometry">
                        <mxRectangle width="75" height="16" as="alternateBounds"/>
                    </mxGeometry>
                </mxCell>
                <mxCell id="zcqD_Dq0G7eDdX4AI_ru-63" value="11" style="shape=partialRectangle;html=1;whiteSpace=wrap;connectable=0;overflow=hidden;top=0;left=0;bottom=0;right=0;pointerEvents=1;labelBackgroundColor=none;align=center;fontSize=10;fontFamily=palatina;fontSource=https%3A%2F%2Ffonts.googleapis.com%2Fcss%3Ffamily%3Dpalatina;fillColor=#ffe6cc;strokeColor=#d79b00;rounded=1;" parent="zcqD_Dq0G7eDdX4AI_ru-61" vertex="1">
                    <mxGeometry x="75" width="95" height="16" as="geometry">
                        <mxRectangle width="95" height="16" as="alternateBounds"/>
                    </mxGeometry>
                </mxCell>
                <mxCell id="zcqD_Dq0G7eDdX4AI_ru-64" value="2024-01-01" style="shape=partialRectangle;html=1;whiteSpace=wrap;connectable=0;overflow=hidden;top=0;left=0;bottom=0;right=0;pointerEvents=1;labelBackgroundColor=none;align=center;fontSize=10;fontFamily=palatina;fontSource=https%3A%2F%2Ffonts.googleapis.com%2Fcss%3Ffamily%3Dpalatina;fillColor=#ffe6cc;strokeColor=#d79b00;rounded=1;" parent="zcqD_Dq0G7eDdX4AI_ru-61" vertex="1">
                    <mxGeometry x="170" width="75" height="16" as="geometry">
                        <mxRectangle width="75" height="16" as="alternateBounds"/>
                    </mxGeometry>
                </mxCell>
                <mxCell id="zcqD_Dq0G7eDdX4AI_ru-65" value="22" style="shape=partialRectangle;html=1;whiteSpace=wrap;connectable=0;overflow=hidden;top=0;left=0;bottom=0;right=0;pointerEvents=1;labelBackgroundColor=none;fontSize=10;fontFamily=palatina;fontSource=https%3A%2F%2Ffonts.googleapis.com%2Fcss%3Ffamily%3Dpalatina;fillColor=#f5f5f5;strokeColor=#666666;fontColor=#333333;rounded=1;" parent="zcqD_Dq0G7eDdX4AI_ru-61" vertex="1">
                    <mxGeometry x="245" width="85" height="16" as="geometry">
                        <mxRectangle width="85" height="16" as="alternateBounds"/>
                    </mxGeometry>
                </mxCell>
                <mxCell id="zcqD_Dq0G7eDdX4AI_ru-66" value="1" style="shape=partialRectangle;html=1;whiteSpace=wrap;connectable=0;overflow=hidden;top=0;left=0;bottom=0;right=0;pointerEvents=1;labelBackgroundColor=none;fontSize=10;fontFamily=palatina;fontSource=https%3A%2F%2Ffonts.googleapis.com%2Fcss%3Ffamily%3Dpalatina;strokeColor=#666666;fillColor=#f5f5f5;fontColor=#333333;rounded=1;" parent="zcqD_Dq0G7eDdX4AI_ru-61" vertex="1">
                    <mxGeometry x="330" width="75" height="16" as="geometry">
                        <mxRectangle width="75" height="16" as="alternateBounds"/>
                    </mxGeometry>
                </mxCell>
                <mxCell id="zcqD_Dq0G7eDdX4AI_ru-138" value="25" style="shape=partialRectangle;html=1;whiteSpace=wrap;connectable=0;overflow=hidden;top=0;left=0;bottom=0;right=0;pointerEvents=1;labelBackgroundColor=none;fontSize=10;fontFamily=palatina;fontSource=https%3A%2F%2Ffonts.googleapis.com%2Fcss%3Ffamily%3Dpalatina;strokeColor=#666666;fillColor=#f5f5f5;fontColor=#333333;rounded=1;" parent="zcqD_Dq0G7eDdX4AI_ru-61" vertex="1">
                    <mxGeometry x="405" width="75" height="16" as="geometry">
                        <mxRectangle width="75" height="16" as="alternateBounds"/>
                    </mxGeometry>
                </mxCell>
                <mxCell id="zcqD_Dq0G7eDdX4AI_ru-133" value="0" style="shape=partialRectangle;html=1;whiteSpace=wrap;connectable=0;overflow=hidden;top=0;left=0;bottom=0;right=0;pointerEvents=1;labelBackgroundColor=none;fontSize=10;fontFamily=palatina;fontSource=https%3A%2F%2Ffonts.googleapis.com%2Fcss%3Ffamily%3Dpalatina;strokeColor=#d79b00;fillColor=#ffe6cc;rounded=1;" parent="zcqD_Dq0G7eDdX4AI_ru-61" vertex="1">
                    <mxGeometry x="480" width="110" height="16" as="geometry">
                        <mxRectangle width="110" height="16" as="alternateBounds"/>
                    </mxGeometry>
                </mxCell>
                <mxCell id="zcqD_Dq0G7eDdX4AI_ru-67" style="shape=tableRow;horizontal=0;startSize=0;swimlaneHead=0;swimlaneBody=0;top=0;left=0;bottom=0;right=0;collapsible=0;dropTarget=0;fillColor=none;points=[[0,0.5],[1,0.5]];portConstraint=eastwest;labelBackgroundColor=none;fontSize=12;fontFamily=palatina;fontSource=https%3A%2F%2Ffonts.googleapis.com%2Fcss%3Ffamily%3Dpalatina;fontColor=#000000;rounded=1;" parent="zcqD_Dq0G7eDdX4AI_ru-48" vertex="1">
                    <mxGeometry y="48" width="590" height="16" as="geometry"/>
                </mxCell>
                <mxCell id="zcqD_Dq0G7eDdX4AI_ru-68" value="2" style="shape=partialRectangle;html=1;whiteSpace=wrap;connectable=0;overflow=hidden;top=0;left=0;bottom=0;right=0;pointerEvents=1;labelBackgroundColor=none;align=center;fontSize=10;fontFamily=palatina;fontSource=https%3A%2F%2Ffonts.googleapis.com%2Fcss%3Ffamily%3Dpalatina;fontColor=#000000;rounded=1;" parent="zcqD_Dq0G7eDdX4AI_ru-67" vertex="1">
                    <mxGeometry width="75" height="16" as="geometry">
                        <mxRectangle width="75" height="16" as="alternateBounds"/>
                    </mxGeometry>
                </mxCell>
                <mxCell id="zcqD_Dq0G7eDdX4AI_ru-69" value="12" style="shape=partialRectangle;html=1;whiteSpace=wrap;connectable=0;overflow=hidden;top=0;left=0;bottom=0;right=0;pointerEvents=1;labelBackgroundColor=none;align=center;fontSize=10;fontFamily=palatina;fontSource=https%3A%2F%2Ffonts.googleapis.com%2Fcss%3Ffamily%3Dpalatina;rounded=1;" parent="zcqD_Dq0G7eDdX4AI_ru-67" vertex="1">
                    <mxGeometry x="75" width="95" height="16" as="geometry">
                        <mxRectangle width="95" height="16" as="alternateBounds"/>
                    </mxGeometry>
                </mxCell>
                <mxCell id="zcqD_Dq0G7eDdX4AI_ru-70" value="2024-01-02" style="shape=partialRectangle;html=1;whiteSpace=wrap;connectable=0;overflow=hidden;top=0;left=0;bottom=0;right=0;pointerEvents=1;labelBackgroundColor=none;align=center;fontSize=10;fontFamily=palatina;fontSource=https%3A%2F%2Ffonts.googleapis.com%2Fcss%3Ffamily%3Dpalatina;rounded=1;" parent="zcqD_Dq0G7eDdX4AI_ru-67" vertex="1">
                    <mxGeometry x="170" width="75" height="16" as="geometry">
                        <mxRectangle width="75" height="16" as="alternateBounds"/>
                    </mxGeometry>
                </mxCell>
                <mxCell id="zcqD_Dq0G7eDdX4AI_ru-71" value="23" style="shape=partialRectangle;html=1;whiteSpace=wrap;connectable=0;overflow=hidden;top=0;left=0;bottom=0;right=0;pointerEvents=1;labelBackgroundColor=none;fontSize=10;fontFamily=palatina;fontSource=https%3A%2F%2Ffonts.googleapis.com%2Fcss%3Ffamily%3Dpalatina;rounded=1;" parent="zcqD_Dq0G7eDdX4AI_ru-67" vertex="1">
                    <mxGeometry x="245" width="85" height="16" as="geometry">
                        <mxRectangle width="85" height="16" as="alternateBounds"/>
                    </mxGeometry>
                </mxCell>
                <mxCell id="zcqD_Dq0G7eDdX4AI_ru-72" value="3" style="shape=partialRectangle;html=1;whiteSpace=wrap;connectable=0;overflow=hidden;top=0;left=0;bottom=0;right=0;pointerEvents=1;labelBackgroundColor=none;fontSize=10;fontFamily=palatina;fontSource=https%3A%2F%2Ffonts.googleapis.com%2Fcss%3Ffamily%3Dpalatina;rounded=1;" parent="zcqD_Dq0G7eDdX4AI_ru-67" vertex="1">
                    <mxGeometry x="330" width="75" height="16" as="geometry">
                        <mxRectangle width="75" height="16" as="alternateBounds"/>
                    </mxGeometry>
                </mxCell>
                <mxCell id="zcqD_Dq0G7eDdX4AI_ru-139" value="13" style="shape=partialRectangle;html=1;whiteSpace=wrap;connectable=0;overflow=hidden;top=0;left=0;bottom=0;right=0;pointerEvents=1;labelBackgroundColor=none;fontSize=10;fontFamily=palatina;fontSource=https%3A%2F%2Ffonts.googleapis.com%2Fcss%3Ffamily%3Dpalatina;rounded=1;" parent="zcqD_Dq0G7eDdX4AI_ru-67" vertex="1">
                    <mxGeometry x="405" width="75" height="16" as="geometry">
                        <mxRectangle width="75" height="16" as="alternateBounds"/>
                    </mxGeometry>
                </mxCell>
                <mxCell id="zcqD_Dq0G7eDdX4AI_ru-134" value="0" style="shape=partialRectangle;html=1;whiteSpace=wrap;connectable=0;overflow=hidden;top=0;left=0;bottom=0;right=0;pointerEvents=1;labelBackgroundColor=none;fontSize=10;fontFamily=palatina;fontSource=https%3A%2F%2Ffonts.googleapis.com%2Fcss%3Ffamily%3Dpalatina;fillColor=#ffe6cc;strokeColor=#d79b00;rounded=1;" parent="zcqD_Dq0G7eDdX4AI_ru-67" vertex="1">
                    <mxGeometry x="480" width="110" height="16" as="geometry">
                        <mxRectangle width="110" height="16" as="alternateBounds"/>
                    </mxGeometry>
                </mxCell>
                <mxCell id="zcqD_Dq0G7eDdX4AI_ru-189" style="shape=tableRow;horizontal=0;startSize=0;swimlaneHead=0;swimlaneBody=0;top=0;left=0;bottom=0;right=0;collapsible=0;dropTarget=0;fillColor=none;points=[[0,0.5],[1,0.5]];portConstraint=eastwest;labelBackgroundColor=none;fontSize=12;fontFamily=palatina;fontSource=https%3A%2F%2Ffonts.googleapis.com%2Fcss%3Ffamily%3Dpalatina;fontColor=#000000;rounded=1;" parent="zcqD_Dq0G7eDdX4AI_ru-48" vertex="1">
                    <mxGeometry y="64" width="590" height="16" as="geometry"/>
                </mxCell>
                <mxCell id="zcqD_Dq0G7eDdX4AI_ru-190" value="3" style="shape=partialRectangle;html=1;whiteSpace=wrap;connectable=0;overflow=hidden;top=0;left=0;bottom=0;right=0;pointerEvents=1;labelBackgroundColor=none;align=center;fontSize=10;fontFamily=palatina;fontSource=https%3A%2F%2Ffonts.googleapis.com%2Fcss%3Ffamily%3Dpalatina;fontColor=#333333;fillColor=#f5f5f5;strokeColor=#666666;rounded=1;" parent="zcqD_Dq0G7eDdX4AI_ru-189" vertex="1">
                    <mxGeometry width="75" height="16" as="geometry">
                        <mxRectangle width="75" height="16" as="alternateBounds"/>
                    </mxGeometry>
                </mxCell>
                <mxCell id="zcqD_Dq0G7eDdX4AI_ru-191" value="11" style="shape=partialRectangle;html=1;whiteSpace=wrap;connectable=0;overflow=hidden;top=0;left=0;bottom=0;right=0;pointerEvents=1;labelBackgroundColor=none;align=center;fontSize=10;fontFamily=palatina;fontSource=https%3A%2F%2Ffonts.googleapis.com%2Fcss%3Ffamily%3Dpalatina;fontColor=#333333;fillColor=#f5f5f5;strokeColor=#666666;rounded=1;" parent="zcqD_Dq0G7eDdX4AI_ru-189" vertex="1">
                    <mxGeometry x="75" width="95" height="16" as="geometry">
                        <mxRectangle width="95" height="16" as="alternateBounds"/>
                    </mxGeometry>
                </mxCell>
                <mxCell id="zcqD_Dq0G7eDdX4AI_ru-192" value="2024-01-03" style="shape=partialRectangle;html=1;whiteSpace=wrap;connectable=0;overflow=hidden;top=0;left=0;bottom=0;right=0;pointerEvents=1;labelBackgroundColor=none;align=center;fontSize=10;fontFamily=palatina;fontSource=https%3A%2F%2Ffonts.googleapis.com%2Fcss%3Ffamily%3Dpalatina;fontColor=#333333;fillColor=#f5f5f5;strokeColor=#666666;rounded=1;" parent="zcqD_Dq0G7eDdX4AI_ru-189" vertex="1">
                    <mxGeometry x="170" width="75" height="16" as="geometry">
                        <mxRectangle width="75" height="16" as="alternateBounds"/>
                    </mxGeometry>
                </mxCell>
                <mxCell id="zcqD_Dq0G7eDdX4AI_ru-193" value="21" style="shape=partialRectangle;html=1;whiteSpace=wrap;connectable=0;overflow=hidden;top=0;left=0;bottom=0;right=0;pointerEvents=1;labelBackgroundColor=none;fontSize=10;fontFamily=palatina;fontSource=https%3A%2F%2Ffonts.googleapis.com%2Fcss%3Ffamily%3Dpalatina;fontColor=#333333;fillColor=#f5f5f5;strokeColor=#666666;rounded=1;" parent="zcqD_Dq0G7eDdX4AI_ru-189" vertex="1">
                    <mxGeometry x="245" width="85" height="16" as="geometry">
                        <mxRectangle width="85" height="16" as="alternateBounds"/>
                    </mxGeometry>
                </mxCell>
                <mxCell id="zcqD_Dq0G7eDdX4AI_ru-194" value="1" style="shape=partialRectangle;html=1;whiteSpace=wrap;connectable=0;overflow=hidden;top=0;left=0;bottom=0;right=0;pointerEvents=1;labelBackgroundColor=none;fontSize=10;fontFamily=palatina;fontSource=https%3A%2F%2Ffonts.googleapis.com%2Fcss%3Ffamily%3Dpalatina;fontColor=#333333;strokeColor=#666666;fillColor=#f5f5f5;rounded=1;" parent="zcqD_Dq0G7eDdX4AI_ru-189" vertex="1">
                    <mxGeometry x="330" width="75" height="16" as="geometry">
                        <mxRectangle width="75" height="16" as="alternateBounds"/>
                    </mxGeometry>
                </mxCell>
                <mxCell id="zcqD_Dq0G7eDdX4AI_ru-195" value="10" style="shape=partialRectangle;html=1;whiteSpace=wrap;connectable=0;overflow=hidden;top=0;left=0;bottom=0;right=0;pointerEvents=1;labelBackgroundColor=none;fontSize=10;fontFamily=palatina;fontSource=https%3A%2F%2Ffonts.googleapis.com%2Fcss%3Ffamily%3Dpalatina;fontColor=#333333;strokeColor=#666666;fillColor=#f5f5f5;rounded=1;" parent="zcqD_Dq0G7eDdX4AI_ru-189" vertex="1">
                    <mxGeometry x="405" width="75" height="16" as="geometry">
                        <mxRectangle width="75" height="16" as="alternateBounds"/>
                    </mxGeometry>
                </mxCell>
                <mxCell id="zcqD_Dq0G7eDdX4AI_ru-196" value="1" style="shape=partialRectangle;html=1;whiteSpace=wrap;connectable=0;overflow=hidden;top=0;left=0;bottom=0;right=0;pointerEvents=1;labelBackgroundColor=none;fontSize=10;fontFamily=palatina;fontSource=https%3A%2F%2Ffonts.googleapis.com%2Fcss%3Ffamily%3Dpalatina;fontColor=#333333;strokeColor=#666666;fillColor=#f5f5f5;rounded=1;" parent="zcqD_Dq0G7eDdX4AI_ru-189" vertex="1">
                    <mxGeometry x="480" width="110" height="16" as="geometry">
                        <mxRectangle width="110" height="16" as="alternateBounds"/>
                    </mxGeometry>
                </mxCell>
                <mxCell id="zcqD_Dq0G7eDdX4AI_ru-73" style="shape=tableRow;horizontal=0;startSize=0;swimlaneHead=0;swimlaneBody=0;top=0;left=0;bottom=0;right=0;collapsible=0;dropTarget=0;fillColor=none;points=[[0,0.5],[1,0.5]];portConstraint=eastwest;labelBackgroundColor=none;fontSize=12;fontFamily=palatina;fontSource=https%3A%2F%2Ffonts.googleapis.com%2Fcss%3Ffamily%3Dpalatina;fontColor=#000000;rounded=1;" parent="zcqD_Dq0G7eDdX4AI_ru-48" vertex="1">
                    <mxGeometry y="80" width="590" height="16" as="geometry"/>
                </mxCell>
                <mxCell id="zcqD_Dq0G7eDdX4AI_ru-74" value="..." style="shape=partialRectangle;html=1;whiteSpace=wrap;connectable=0;overflow=hidden;top=0;left=0;bottom=0;right=0;pointerEvents=1;labelBackgroundColor=none;align=center;fontSize=10;fontFamily=palatina;fontSource=https%3A%2F%2Ffonts.googleapis.com%2Fcss%3Ffamily%3Dpalatina;rounded=1;" parent="zcqD_Dq0G7eDdX4AI_ru-73" vertex="1">
                    <mxGeometry width="75" height="16" as="geometry">
                        <mxRectangle width="75" height="16" as="alternateBounds"/>
                    </mxGeometry>
                </mxCell>
                <mxCell id="zcqD_Dq0G7eDdX4AI_ru-75" value="..." style="shape=partialRectangle;html=1;whiteSpace=wrap;connectable=0;overflow=hidden;top=0;left=0;bottom=0;right=0;pointerEvents=1;labelBackgroundColor=none;align=center;fontSize=10;fontFamily=palatina;fontSource=https%3A%2F%2Ffonts.googleapis.com%2Fcss%3Ffamily%3Dpalatina;rounded=1;" parent="zcqD_Dq0G7eDdX4AI_ru-73" vertex="1">
                    <mxGeometry x="75" width="95" height="16" as="geometry">
                        <mxRectangle width="95" height="16" as="alternateBounds"/>
                    </mxGeometry>
                </mxCell>
                <mxCell id="zcqD_Dq0G7eDdX4AI_ru-76" value="..." style="shape=partialRectangle;html=1;whiteSpace=wrap;connectable=0;overflow=hidden;top=0;left=0;bottom=0;right=0;pointerEvents=1;labelBackgroundColor=none;align=center;fontSize=10;fontFamily=palatina;fontSource=https%3A%2F%2Ffonts.googleapis.com%2Fcss%3Ffamily%3Dpalatina;rounded=1;" parent="zcqD_Dq0G7eDdX4AI_ru-73" vertex="1">
                    <mxGeometry x="170" width="75" height="16" as="geometry">
                        <mxRectangle width="75" height="16" as="alternateBounds"/>
                    </mxGeometry>
                </mxCell>
                <mxCell id="zcqD_Dq0G7eDdX4AI_ru-77" value="..." style="shape=partialRectangle;html=1;whiteSpace=wrap;connectable=0;overflow=hidden;top=0;left=0;bottom=0;right=0;pointerEvents=1;labelBackgroundColor=none;fontSize=10;fontFamily=palatina;fontSource=https%3A%2F%2Ffonts.googleapis.com%2Fcss%3Ffamily%3Dpalatina;rounded=1;" parent="zcqD_Dq0G7eDdX4AI_ru-73" vertex="1">
                    <mxGeometry x="245" width="85" height="16" as="geometry">
                        <mxRectangle width="85" height="16" as="alternateBounds"/>
                    </mxGeometry>
                </mxCell>
                <mxCell id="zcqD_Dq0G7eDdX4AI_ru-78" value="..." style="shape=partialRectangle;html=1;whiteSpace=wrap;connectable=0;overflow=hidden;top=0;left=0;bottom=0;right=0;pointerEvents=1;labelBackgroundColor=none;fontSize=10;fontFamily=palatina;fontSource=https%3A%2F%2Ffonts.googleapis.com%2Fcss%3Ffamily%3Dpalatina;rounded=1;" parent="zcqD_Dq0G7eDdX4AI_ru-73" vertex="1">
                    <mxGeometry x="330" width="75" height="16" as="geometry">
                        <mxRectangle width="75" height="16" as="alternateBounds"/>
                    </mxGeometry>
                </mxCell>
                <mxCell id="zcqD_Dq0G7eDdX4AI_ru-140" value="..." style="shape=partialRectangle;html=1;whiteSpace=wrap;connectable=0;overflow=hidden;top=0;left=0;bottom=0;right=0;pointerEvents=1;labelBackgroundColor=none;fontSize=10;fontFamily=palatina;fontSource=https%3A%2F%2Ffonts.googleapis.com%2Fcss%3Ffamily%3Dpalatina;rounded=1;" parent="zcqD_Dq0G7eDdX4AI_ru-73" vertex="1">
                    <mxGeometry x="405" width="75" height="16" as="geometry">
                        <mxRectangle width="75" height="16" as="alternateBounds"/>
                    </mxGeometry>
                </mxCell>
                <mxCell id="zcqD_Dq0G7eDdX4AI_ru-135" value="..." style="shape=partialRectangle;html=1;whiteSpace=wrap;connectable=0;overflow=hidden;top=0;left=0;bottom=0;right=0;pointerEvents=1;labelBackgroundColor=none;fontSize=10;fontFamily=palatina;fontSource=https%3A%2F%2Ffonts.googleapis.com%2Fcss%3Ffamily%3Dpalatina;rounded=1;" parent="zcqD_Dq0G7eDdX4AI_ru-73" vertex="1">
                    <mxGeometry x="480" width="110" height="16" as="geometry">
                        <mxRectangle width="110" height="16" as="alternateBounds"/>
                    </mxGeometry>
                </mxCell>
                <mxCell id="zcqD_Dq0G7eDdX4AI_ru-79" value="&lt;font style=&quot;font-size: 12px;&quot;&gt;Join&lt;/font&gt;" style="text;html=1;strokeColor=none;fillColor=none;align=center;verticalAlign=middle;whiteSpace=wrap;rounded=1;fontSize=12;fontFamily=palatina;fontSource=https%3A%2F%2Ffonts.googleapis.com%2Fcss%3Ffamily%3Dpalatina;fontColor=#000000;" parent="1" vertex="1">
                    <mxGeometry x="326" y="293" width="60" height="30" as="geometry"/>
                </mxCell>
                <mxCell id="zcqD_Dq0G7eDdX4AI_ru-80" value="Factorized Learning" style="ellipse;whiteSpace=wrap;html=1;fontFamily=palatina;fontSource=https%3A%2F%2Ffonts.googleapis.com%2Fcss%3Ffamily%3Dpalatina;fontSize=12;rounded=1;" parent="1" vertex="1">
                    <mxGeometry x="660" y="140" width="120" height="50" as="geometry"/>
                </mxCell>
                <mxCell id="zcqD_Dq0G7eDdX4AI_ru-81" value="&lt;font data-font-src=&quot;https://fonts.googleapis.com/css?family=palatino&quot; style=&quot;font-size: 12px;&quot;&gt;Learning over Materialized data&lt;/font&gt;" style="ellipse;whiteSpace=wrap;html=1;fontFamily=palatina;fontSource=https%3A%2F%2Ffonts.googleapis.com%2Fcss%3Ffamily%3Dpalatina;fontSize=12;rounded=1;" parent="1" vertex="1">
                    <mxGeometry x="660" y="375" width="120" height="50" as="geometry"/>
                </mxCell>
                <mxCell id="zcqD_Dq0G7eDdX4AI_ru-91" value="" style="shape=table;startSize=0;container=1;collapsible=0;childLayout=tableLayout;labelBackgroundColor=none;fontSize=12;fontFamily=palatina;fontSource=https%3A%2F%2Ffonts.googleapis.com%2Fcss%3Ffamily%3Dpalatina;fontColor=#000000;rounded=1;" parent="1" vertex="1">
                    <mxGeometry x="191.02999999999997" y="230" width="259.94000000000005" height="52" as="geometry"/>
                </mxCell>
                <mxCell id="zcqD_Dq0G7eDdX4AI_ru-92" value="" style="shape=tableRow;horizontal=0;startSize=0;swimlaneHead=0;swimlaneBody=0;top=0;left=0;bottom=0;right=0;collapsible=0;dropTarget=0;fillColor=none;points=[[0,0.5],[1,0.5]];portConstraint=eastwest;labelBackgroundColor=none;fontSize=12;fontFamily=palatina;fontSource=https%3A%2F%2Ffonts.googleapis.com%2Fcss%3Ffamily%3Dpalatina;fontColor=#000000;rounded=1;" parent="zcqD_Dq0G7eDdX4AI_ru-91" vertex="1">
                    <mxGeometry width="259.94000000000005" height="18" as="geometry"/>
                </mxCell>
                <mxCell id="zcqD_Dq0G7eDdX4AI_ru-159" value="order_id" style="shape=partialRectangle;html=1;whiteSpace=wrap;connectable=0;overflow=hidden;top=0;left=0;bottom=0;right=0;pointerEvents=1;labelBackgroundColor=none;fillColor=#f5f5f5;strokeColor=#666666;fontColor=#000000;fontSize=12;fontFamily=palatina;fontSource=https%3A%2F%2Ffonts.googleapis.com%2Fcss%3Ffamily%3Dpalatina;fontStyle=1;rounded=1;" parent="zcqD_Dq0G7eDdX4AI_ru-92" vertex="1">
                    <mxGeometry width="75" height="18" as="geometry">
                        <mxRectangle width="75" height="18" as="alternateBounds"/>
                    </mxGeometry>
                </mxCell>
                <mxCell id="zcqD_Dq0G7eDdX4AI_ru-167" value="product_id" style="shape=partialRectangle;html=1;whiteSpace=wrap;connectable=0;overflow=hidden;top=0;left=0;bottom=0;right=0;pointerEvents=1;labelBackgroundColor=none;fillColor=#f5f5f5;strokeColor=#666666;fontColor=#000000;fontSize=12;fontFamily=palatina;fontSource=https%3A%2F%2Ffonts.googleapis.com%2Fcss%3Ffamily%3Dpalatina;fontStyle=1;rounded=1;" parent="zcqD_Dq0G7eDdX4AI_ru-92" vertex="1">
                    <mxGeometry x="75" width="75" height="18" as="geometry">
                        <mxRectangle width="75" height="18" as="alternateBounds"/>
                    </mxGeometry>
                </mxCell>
                <mxCell id="zcqD_Dq0G7eDdX4AI_ru-94" value="or_return_quantity" style="shape=partialRectangle;html=1;whiteSpace=wrap;connectable=0;overflow=hidden;top=0;left=0;bottom=0;right=0;pointerEvents=1;labelBackgroundColor=none;fillColor=#f5f5f5;strokeColor=#666666;fontColor=#000000;fontSize=12;fontFamily=palatina;fontSource=https%3A%2F%2Ffonts.googleapis.com%2Fcss%3Ffamily%3Dpalatina;fontStyle=1;rounded=1;" parent="zcqD_Dq0G7eDdX4AI_ru-92" vertex="1">
                    <mxGeometry x="150" width="110" height="18" as="geometry">
                        <mxRectangle width="110" height="18" as="alternateBounds"/>
                    </mxGeometry>
                </mxCell>
                <mxCell id="zcqD_Dq0G7eDdX4AI_ru-96" value="" style="shape=tableRow;horizontal=0;startSize=0;swimlaneHead=0;swimlaneBody=0;top=0;left=0;bottom=0;right=0;collapsible=0;dropTarget=0;fillColor=none;points=[[0,0.5],[1,0.5]];portConstraint=eastwest;labelBackgroundColor=none;fontSize=12;fontFamily=palatina;fontSource=https%3A%2F%2Ffonts.googleapis.com%2Fcss%3Ffamily%3Dpalatina;fontColor=#000000;rounded=1;" parent="zcqD_Dq0G7eDdX4AI_ru-91" vertex="1">
                    <mxGeometry y="18" width="259.94000000000005" height="16" as="geometry"/>
                </mxCell>
                <mxCell id="zcqD_Dq0G7eDdX4AI_ru-160" value="1" style="shape=partialRectangle;html=1;whiteSpace=wrap;connectable=0;overflow=hidden;top=0;left=0;bottom=0;right=0;pointerEvents=1;labelBackgroundColor=none;fontSize=12;fontFamily=palatina;fontSource=https%3A%2F%2Ffonts.googleapis.com%2Fcss%3Ffamily%3Dpalatina;fontColor=#000000;rounded=1;" parent="zcqD_Dq0G7eDdX4AI_ru-96" vertex="1">
                    <mxGeometry width="75" height="16" as="geometry">
                        <mxRectangle width="75" height="16" as="alternateBounds"/>
                    </mxGeometry>
                </mxCell>
                <mxCell id="zcqD_Dq0G7eDdX4AI_ru-168" value="21" style="shape=partialRectangle;html=1;whiteSpace=wrap;connectable=0;overflow=hidden;top=0;left=0;bottom=0;right=0;pointerEvents=1;labelBackgroundColor=none;fontSize=12;fontFamily=palatina;fontSource=https%3A%2F%2Ffonts.googleapis.com%2Fcss%3Ffamily%3Dpalatina;fontColor=#000000;rounded=1;" parent="zcqD_Dq0G7eDdX4AI_ru-96" vertex="1">
                    <mxGeometry x="75" width="75" height="16" as="geometry">
                        <mxRectangle width="75" height="16" as="alternateBounds"/>
                    </mxGeometry>
                </mxCell>
                <mxCell id="zcqD_Dq0G7eDdX4AI_ru-98" value="1" style="shape=partialRectangle;html=1;whiteSpace=wrap;connectable=0;overflow=hidden;top=0;left=0;bottom=0;right=0;pointerEvents=1;labelBackgroundColor=none;fontSize=12;fontFamily=palatina;fontSource=https%3A%2F%2Ffonts.googleapis.com%2Fcss%3Ffamily%3Dpalatina;fontColor=#000000;rounded=1;" parent="zcqD_Dq0G7eDdX4AI_ru-96" vertex="1">
                    <mxGeometry x="150" width="110" height="16" as="geometry">
                        <mxRectangle width="110" height="16" as="alternateBounds"/>
                    </mxGeometry>
                </mxCell>
                <mxCell id="zcqD_Dq0G7eDdX4AI_ru-100" style="shape=tableRow;horizontal=0;startSize=0;swimlaneHead=0;swimlaneBody=0;top=0;left=0;bottom=0;right=0;collapsible=0;dropTarget=0;fillColor=none;points=[[0,0.5],[1,0.5]];portConstraint=eastwest;labelBackgroundColor=none;fontSize=12;fontFamily=palatina;fontSource=https%3A%2F%2Ffonts.googleapis.com%2Fcss%3Ffamily%3Dpalatina;fontColor=#000000;swimlaneFillColor=none;rounded=1;" parent="zcqD_Dq0G7eDdX4AI_ru-91" vertex="1">
                    <mxGeometry y="34" width="259.94000000000005" height="18" as="geometry"/>
                </mxCell>
                <mxCell id="zcqD_Dq0G7eDdX4AI_ru-161" value="..." style="shape=partialRectangle;html=1;whiteSpace=wrap;connectable=0;overflow=hidden;top=0;left=0;bottom=0;right=0;pointerEvents=1;labelBackgroundColor=none;fontSize=12;fontFamily=palatina;fontSource=https%3A%2F%2Ffonts.googleapis.com%2Fcss%3Ffamily%3Dpalatina;fontColor=#333333;fillColor=#f5f5f5;strokeColor=#666666;rounded=1;" parent="zcqD_Dq0G7eDdX4AI_ru-100" vertex="1">
                    <mxGeometry width="75" height="18" as="geometry">
                        <mxRectangle width="75" height="18" as="alternateBounds"/>
                    </mxGeometry>
                </mxCell>
                <mxCell id="zcqD_Dq0G7eDdX4AI_ru-169" value="..." style="shape=partialRectangle;html=1;whiteSpace=wrap;connectable=0;overflow=hidden;top=0;left=0;bottom=0;right=0;pointerEvents=1;labelBackgroundColor=none;fontSize=12;fontFamily=palatina;fontSource=https%3A%2F%2Ffonts.googleapis.com%2Fcss%3Ffamily%3Dpalatina;fontColor=#333333;fillColor=#f5f5f5;strokeColor=#666666;rounded=1;" parent="zcqD_Dq0G7eDdX4AI_ru-100" vertex="1">
                    <mxGeometry x="75" width="75" height="18" as="geometry">
                        <mxRectangle width="75" height="18" as="alternateBounds"/>
                    </mxGeometry>
                </mxCell>
                <mxCell id="zcqD_Dq0G7eDdX4AI_ru-102" value="..." style="shape=partialRectangle;html=1;whiteSpace=wrap;connectable=0;overflow=hidden;top=0;left=0;bottom=0;right=0;pointerEvents=1;labelBackgroundColor=none;fontSize=12;fontFamily=palatina;fontSource=https%3A%2F%2Ffonts.googleapis.com%2Fcss%3Ffamily%3Dpalatina;fontColor=#333333;fillColor=#f5f5f5;strokeColor=#666666;rounded=1;" parent="zcqD_Dq0G7eDdX4AI_ru-100" vertex="1">
                    <mxGeometry x="150" width="110" height="18" as="geometry">
                        <mxRectangle width="110" height="18" as="alternateBounds"/>
                    </mxGeometry>
                </mxCell>
                <mxCell id="zcqD_Dq0G7eDdX4AI_ru-108" value="\(S_3\) Order returns" style="text;html=1;strokeColor=none;fillColor=none;align=center;verticalAlign=middle;whiteSpace=wrap;rounded=1;labelBackgroundColor=none;fontStyle=1;fontSize=12;fontFamily=palatina;fontSource=https%3A%2F%2Ffonts.googleapis.com%2Fcss%3Ffamily%3Dpalatina;fontColor=#000000;" parent="1" vertex="1">
                    <mxGeometry x="256" y="206" width="130" height="24" as="geometry"/>
                </mxCell>
            </root>
        </mxGraphModel>
    </diagram>
</mxfile>